<?xml version="1.0" standalone="no"?>
<!DOCTYPE svg PUBLIC "-//W3C//DTD SVG 20010904//EN"
 "http://www.w3.org/TR/2001/REC-SVG-20010904/DTD/svg10.dtd">
<svg version="1.0" xmlns="http://www.w3.org/2000/svg"
 width="300.000000pt" height="104.000000pt" viewBox="0 0 300.000000 104.000000"
 preserveAspectRatio="xMidYMid meet">
<metadata>
Created by potrace 1.10, written by Peter Selinger 2001-2011
</metadata>
<g transform="translate(0.000000,104.000000) scale(0.100000,-0.100000)"
fill="#000000" stroke="none">
<path d="M0 520 l0 -520 1500 0 1500 0 0 520 0 520 -1500 0 -1500 0 0 -520z
m1588 23 l-3 -238 -30 0 c-24 0 -31 5 -33 23 l-3 23 -30 -26 c-23 -19 -42 -25
-78 -25 -86 0 -131 58 -131 167 1 106 51 173 129 173 33 0 81 -19 81 -32 0 -4
4 -8 10 -8 6 0 7 28 3 74 -8 97 -4 106 47 106 l40 0 -2 -237z m1067 -3 l0
-235 -35 0 c-31 0 -35 3 -32 23 l3 22 -37 -25 c-26 -18 -50 -25 -83 -25 -55 0
-88 20 -107 66 -18 43 -18 155 0 199 28 67 125 97 179 55 14 -11 27 -20 29
-20 1 0 2 41 0 91 l-3 90 43 -3 43 -3 0 -235z m-2450 117 l0 -87 88 1 87 1 0
89 0 89 45 0 45 0 -2 -222 -3 -223 -40 0 -40 0 -3 95 -3 95 -86 -1 -86 -2 2
-91 c2 -89 2 -90 -23 -97 -13 -3 -33 -4 -43 -2 -17 3 -18 19 -21 226 l-2 223
42 -3 43 -3 0 -88z m2075 58 l0 -35 -85 0 -85 0 0 -55 0 -54 73 -3 72 -3 0
-30 0 -30 -72 -3 -73 -3 0 -62 0 -62 85 4 85 3 0 -41 0 -42 -127 3 -128 3 -3
210 c-1 115 0 215 2 222 4 10 38 13 131 13 l125 0 0 -35z m-1516 -89 c48 -20
57 -52 54 -196 l-3 -125 -30 0 c-22 0 -30 4 -29 18 2 22 -2 21 -33 -3 -35 -27
-111 -27 -146 0 -31 24 -44 78 -27 109 20 38 70 61 133 61 54 0 57 1 57 25 0
31 -33 65 -62 65 -13 0 -42 -9 -65 -19 -23 -11 -44 -17 -47 -13 -11 11 -6 50
8 61 37 31 136 40 190 17z m399 -7 c38 -29 49 -79 45 -204 l-3 -110 -40 0 -40
0 -5 123 c-4 94 -8 125 -20 132 -23 15 -45 12 -73 -10 -25 -20 -26 -26 -29
-133 l-3 -112 -40 0 -40 0 -3 163 -2 162 35 0 c28 0 35 -4 35 -20 0 -24 13
-26 31 -4 32 38 112 45 152 13z m606 -101 c20 -59 38 -108 41 -108 3 0 19 48
36 108 l31 107 41 3 c28 2 42 -1 42 -9 0 -15 -128 -396 -142 -421 -6 -13 -21
-18 -53 -18 -25 0 -45 2 -45 5 0 2 11 30 25 61 16 36 22 61 16 68 -8 10 -121
302 -121 313 0 2 21 3 47 1 l47 -3 35 -107z m1073 -131 c13 -20 9 -55 -8 -71
-18 -19 -55 -21 -72 -4 -18 18 -15 75 6 87 20 12 63 5 74 -12z"/>
<path d="M1537 754 c-4 -4 -7 -39 -7 -78 0 -59 -3 -73 -19 -83 -15 -9 -25 -8
-50 8 -85 52 -168 -33 -156 -157 9 -86 29 -111 96 -120 37 -5 47 -3 63 15 11
12 14 21 8 21 -6 0 -14 -4 -17 -10 -13 -20 -49 -9 -81 26 -28 29 -34 43 -34
78 0 58 15 98 46 121 26 20 64 28 64 13 0 -4 6 -8 13 -8 7 0 25 -13 40 -28 23
-24 27 -37 27 -83 0 -43 -5 -60 -20 -74 -23 -21 -26 -35 -6 -35 7 0 19 -7 26
-15 7 -9 17 -14 22 -13 12 4 11 409 -1 421 -4 4 -10 4 -14 1z"/>
<path d="M1391 544 c-26 -33 -29 -118 -5 -152 21 -30 64 -29 94 4 18 18 25 38
26 74 2 44 -1 52 -28 75 -38 32 -61 32 -87 -1z"/>
<path d="M2600 682 c0 -102 -13 -117 -72 -83 -62 35 -113 16 -142 -53 -33 -80
-14 -185 39 -211 46 -21 69 -19 116 11 l41 26 15 -21 c8 -12 18 -21 23 -21 16
0 8 422 -7 428 -10 3 -13 -17 -13 -76z m-83 -94 c15 -7 40 -25 56 -41 22 -23
27 -37 27 -76 0 -55 -22 -91 -72 -116 -57 -28 -114 13 -118 86 -4 75 0 91 34
125 39 39 36 38 73 22z"/>
<path d="M2461 551 c-24 -24 -36 -80 -26 -118 15 -62 61 -80 109 -42 23 18 26
28 26 79 0 51 -3 61 -26 79 -33 26 -58 27 -83 2z"/>
<path d="M147 723 c-4 -3 -7 -94 -7 -200 0 -180 1 -194 18 -191 14 3 17 16 19
81 2 103 10 110 115 108 51 -1 85 -7 94 -15 8 -9 14 -44 16 -92 2 -65 6 -79
20 -82 16 -3 17 13 15 195 -2 168 -4 198 -17 198 -12 0 -15 -15 -16 -73 -1
-93 -11 -101 -115 -102 -99 0 -111 9 -110 85 0 83 -10 111 -32 88z"/>
<path d="M2046 721 c-2 -3 -4 -93 -5 -198 l-1 -193 105 0 c63 0 105 4 105 10
0 6 -29 10 -68 10 -83 0 -99 14 -100 89 -2 73 16 91 93 93 l60 1 -61 6 c-81 8
-94 20 -92 85 1 71 20 86 111 86 39 0 67 3 63 7 -9 9 -205 12 -210 4z"/>
<path d="M633 609 c-31 -9 -55 -29 -34 -29 5 0 12 4 15 8 3 5 25 9 50 11 38 1
51 -3 71 -23 27 -27 33 -74 13 -94 -8 -8 -8 -15 2 -27 8 -10 11 -30 7 -60 -6
-37 -3 -46 13 -55 10 -5 22 -10 25 -10 4 0 5 54 2 121 -4 105 -7 124 -25 141
-23 23 -88 31 -139 17z"/>
<path d="M592 444 c-16 -11 -22 -25 -22 -54 0 -34 4 -42 30 -55 34 -17 50 -19
50 -5 0 6 -5 10 -11 10 -36 0 -52 69 -22 102 20 22 6 24 -25 2z"/>
<path d="M642 428 c-26 -26 -7 -78 29 -78 27 0 69 39 69 66 0 22 -4 24 -43 24
-24 0 -48 -5 -55 -12z"/>
<path d="M1032 594 l-44 -26 -24 23 c-13 12 -25 21 -25 18 -1 -2 -2 -66 -4
-141 -2 -129 -1 -138 16 -138 17 0 19 9 19 98 1 104 4 113 56 150 27 18 37 20
61 11 17 -5 35 -20 41 -32 10 -18 19 -103 21 -204 1 -14 7 -23 17 -23 14 0 16
15 13 120 -4 103 -7 122 -24 139 -33 34 -74 35 -123 5z"/>
<path d="M1680 600 c0 -15 37 -121 77 -224 35 -88 35 -90 19 -124 -17 -35 -10
-62 13 -48 10 6 101 280 101 303 0 6 5 13 10 15 6 2 12 12 15 23 2 11 7 31 11
44 6 20 4 23 -10 18 -10 -4 -20 -7 -22 -7 -2 0 -4 -8 -4 -18 0 -9 -9 -42 -20
-72 -11 -30 -20 -62 -20 -71 0 -9 -8 -23 -18 -32 -16 -15 -20 -15 -40 -1 -12
8 -22 24 -22 34 0 10 -4 21 -10 25 -5 3 -7 12 -3 20 3 8 0 15 -6 15 -6 0 -11
9 -11 19 0 11 -4 23 -10 26 -5 3 -10 17 -10 30 0 12 -7 26 -16 29 -21 8 -24 8
-24 -4z"/>
<path d="M2776 364 c-8 -21 1 -34 25 -34 14 0 19 7 19 25 0 29 -34 36 -44 9z"/>
</g>
</svg>
